<svg id="visual" viewBox="0 0 1536 540" width="1536" height="540" xmlns="http://www.w3.org/2000/svg"
     xmlns:xlink="http://www.w3.org/1999/xlink" version="1.1">
    <rect width="1536" height="540" fill="#001122"></rect>
    <g>
        <g transform="translate(836 248)">
            <path d="M0 -81.4L70.5 -40.7L70.5 40.7L0 81.4L-70.5 40.7L-70.5 -40.7Z" fill="#C62368"></path>
        </g>
        <g transform="translate(1438 339)">
            <path d="M0 -58L50.2 -29L50.2 29L0 58L-50.2 29L-50.2 -29Z" fill="#C62368"></path>
        </g>
        <g transform="translate(1153 312)">
            <path d="M0 -71L61.5 -35.5L61.5 35.5L0 71L-61.5 35.5L-61.5 -35.5Z" fill="#C62368"></path>
        </g>
        <g transform="translate(382 344)">
            <path d="M0 -79L68.4 -39.5L68.4 39.5L0 79L-68.4 39.5L-68.4 -39.5Z" fill="#C62368"></path>
        </g>
        <g transform="translate(1358 82)">
            <path d="M0 -67L58 -33.5L58 33.5L0 67L-58 33.5L-58 -33.5Z" fill="#C62368"></path>
        </g>
        <g transform="translate(557 209)">
            <path d="M0 -76L65.8 -38L65.8 38L0 76L-65.8 38L-65.8 -38Z" fill="#C62368"></path>
        </g>
        <g transform="translate(680 326)">
            <path d="M0 -69L59.8 -34.5L59.8 34.5L0 69L-59.8 34.5L-59.8 -34.5Z" fill="#C62368"></path>
        </g>
        <g transform="translate(265 113)">
            <path d="M0 -76L65.8 -38L65.8 38L0 76L-65.8 38L-65.8 -38Z" fill="#C62368"></path>
        </g>
        <g transform="translate(196 402)">
            <path d="M0 -65L56.3 -32.5L56.3 32.5L0 65L-56.3 32.5L-56.3 -32.5Z" fill="#C62368"></path>
        </g>
        <g transform="translate(996 453)">
            <path d="M0 -47L40.7 -23.5L40.7 23.5L0 47L-40.7 23.5L-40.7 -23.5Z" fill="#C62368"></path>
        </g>
        <g transform="translate(986 178)">
            <path d="M0 -40L34.6 -20L34.6 20L0 40L-34.6 20L-34.6 -20Z" fill="#C62368"></path>
        </g>
        <g transform="translate(793 86)">
            <path d="M0 -69L59.8 -34.5L59.8 34.5L0 69L-59.8 34.5L-59.8 -34.5Z" fill="#C62368"></path>
        </g>
        <g transform="translate(532 419)">
            <path d="M0 -64L55.4 -32L55.4 32L0 64L-55.4 32L-55.4 -32Z" fill="#C62368"></path>
        </g>
        <g transform="translate(1243 450)">
            <path d="M0 -56L48.5 -28L48.5 28L0 56L-48.5 28L-48.5 -28Z" fill="#C62368"></path>
        </g>
        <g transform="translate(82 280)">
            <path d="M0 -41L35.5 -20.5L35.5 20.5L0 41L-35.5 20.5L-35.5 -20.5Z" fill="#C62368"></path>
        </g>
        <g transform="translate(1187 102)">
            <path d="M0 -70L60.6 -35L60.6 35L0 70L-60.6 35L-60.6 -35Z" fill="#C62368"></path>
        </g>
        <g transform="translate(815 435)">
            <path d="M0 -72L62.4 -36L62.4 36L0 72L-62.4 36L-62.4 -36Z" fill="#C62368"></path>
        </g>
        <g transform="translate(91 85)">
            <path d="M0 -58L50.2 -29L50.2 29L0 58L-50.2 29L-50.2 -29Z" fill="#C62368"></path>
        </g>
    </g>
</svg>