<svg id="visual" viewBox="0 0 1536 540" width="1536" height="540" xmlns="http://www.w3.org/2000/svg" xmlns:xlink="http://www.w3.org/1999/xlink" version="1.1"><rect x="0" y="0" width="1536" height="540" fill="#001220"></rect><path d="M0 180L36.5 173.8C73 167.7 146 155.3 219.2 154.5C292.3 153.7 365.7 164.3 438.8 162.5C512 160.7 585 146.3 658.2 147.7C731.3 149 804.7 166 877.8 168.7C951 171.3 1024 159.7 1097.2 164C1170.3 168.3 1243.7 188.7 1316.8 188.2C1390 187.7 1463 166.3 1499.5 155.7L1536 145L1536 0L1499.5 0C1463 0 1390 0 1316.8 0C1243.7 0 1170.3 0 1097.2 0C1024 0 951 0 877.8 0C804.7 0 731.3 0 658.2 0C585 0 512 0 438.8 0C365.7 0 292.3 0 219.2 0C146 0 73 0 36.5 0L0 0Z" fill="#6600ff"></path><path d="M0 152L36.5 152C73 152 146 152 219.2 146.7C292.3 141.3 365.7 130.7 438.8 130.3C512 130 585 140 658.2 147.7C731.3 155.3 804.7 160.7 877.8 160C951 159.3 1024 152.7 1097.2 155.5C1170.3 158.3 1243.7 170.7 1316.8 175C1390 179.3 1463 175.7 1499.5 173.8L1536 172L1536 0L1499.5 0C1463 0 1390 0 1316.8 0C1243.7 0 1170.3 0 1097.2 0C1024 0 951 0 877.8 0C804.7 0 731.3 0 658.2 0C585 0 512 0 438.8 0C365.7 0 292.3 0 219.2 0C146 0 73 0 36.5 0L0 0Z" fill="#a500d6"></path><path d="M0 82L36.5 90.7C73 99.3 146 116.7 219.2 125C292.3 133.3 365.7 132.7 438.8 126.3C512 120 585 108 658.2 101.8C731.3 95.7 804.7 95.3 877.8 101.5C951 107.7 1024 120.3 1097.2 124.3C1170.3 128.3 1243.7 123.7 1316.8 122.3C1390 121 1463 123 1499.5 124L1536 125L1536 0L1499.5 0C1463 0 1390 0 1316.8 0C1243.7 0 1170.3 0 1097.2 0C1024 0 951 0 877.8 0C804.7 0 731.3 0 658.2 0C585 0 512 0 438.8 0C365.7 0 292.3 0 219.2 0C146 0 73 0 36.5 0L0 0Z" fill="#bf00b3"></path><path d="M0 81L36.5 83.8C73 86.7 146 92.3 219.2 98.5C292.3 104.7 365.7 111.3 438.8 105.8C512 100.3 585 82.7 658.2 81.8C731.3 81 804.7 97 877.8 104.8C951 112.7 1024 112.3 1097.2 110.2C1170.3 108 1243.7 104 1316.8 102.3C1390 100.7 1463 101.3 1499.5 101.7L1536 102L1536 0L1499.5 0C1463 0 1390 0 1316.8 0C1243.7 0 1170.3 0 1097.2 0C1024 0 951 0 877.8 0C804.7 0 731.3 0 658.2 0C585 0 512 0 438.8 0C365.7 0 292.3 0 219.2 0C146 0 73 0 36.5 0L0 0Z" fill="#c80096"></path><path d="M0 50L36.5 55C73 60 146 70 219.2 75.5C292.3 81 365.7 82 438.8 77.7C512 73.3 585 63.7 658.2 61.8C731.3 60 804.7 66 877.8 67.2C951 68.3 1024 64.7 1097.2 62.7C1170.3 60.7 1243.7 60.3 1316.8 64C1390 67.7 1463 75.3 1499.5 79.2L1536 83L1536 0L1499.5 0C1463 0 1390 0 1316.8 0C1243.7 0 1170.3 0 1097.2 0C1024 0 951 0 877.8 0C804.7 0 731.3 0 658.2 0C585 0 512 0 438.8 0C365.7 0 292.3 0 219.2 0C146 0 73 0 36.5 0L0 0Z" fill="#ca0e7d"></path><path d="M0 25L36.5 26.7C73 28.3 146 31.7 219.2 34.3C292.3 37 365.7 39 438.8 39C512 39 585 37 658.2 37C731.3 37 804.7 39 877.8 36.8C951 34.7 1024 28.3 1097.2 30.2C1170.3 32 1243.7 42 1316.8 46.8C1390 51.7 1463 51.3 1499.5 51.2L1536 51L1536 0L1499.5 0C1463 0 1390 0 1316.8 0C1243.7 0 1170.3 0 1097.2 0C1024 0 951 0 877.8 0C804.7 0 731.3 0 658.2 0C585 0 512 0 438.8 0C365.7 0 292.3 0 219.2 0C146 0 73 0 36.5 0L0 0Z" fill="#c62368"></path></svg>