<svg id="visual" viewBox="0 0 1536 540" width="1536" height="540" xmlns="http://www.w3.org/2000/svg" xmlns:xlink="http://www.w3.org/1999/xlink" version="1.1"><rect x="0" y="0" width="1536" height="540" fill="#001220"></rect><path d="M0 307L36.5 316C73 325 146 343 219.2 350C292.3 357 365.7 353 438.8 349.5C512 346 585 343 658.2 333.7C731.3 324.3 804.7 308.7 877.8 299.7C951 290.7 1024 288.3 1097.2 292C1170.3 295.7 1243.7 305.3 1316.8 320C1390 334.7 1463 354.3 1499.5 364.2L1536 374L1536 541L1499.5 541C1463 541 1390 541 1316.8 541C1243.7 541 1170.3 541 1097.2 541C1024 541 951 541 877.8 541C804.7 541 731.3 541 658.2 541C585 541 512 541 438.8 541C365.7 541 292.3 541 219.2 541C146 541 73 541 36.5 541L0 541Z" fill="#6600ff"></path><path d="M0 359L36.5 351.8C73 344.7 146 330.3 219.2 324.5C292.3 318.7 365.7 321.3 438.8 331.7C512 342 585 360 658.2 363.3C731.3 366.7 804.7 355.3 877.8 360.8C951 366.3 1024 388.7 1097.2 398.8C1170.3 409 1243.7 407 1316.8 402.5C1390 398 1463 391 1499.5 387.5L1536 384L1536 541L1499.5 541C1463 541 1390 541 1316.8 541C1243.7 541 1170.3 541 1097.2 541C1024 541 951 541 877.8 541C804.7 541 731.3 541 658.2 541C585 541 512 541 438.8 541C365.7 541 292.3 541 219.2 541C146 541 73 541 36.5 541L0 541Z" fill="#a500d6"></path><path d="M0 412L36.5 410.2C73 408.3 146 404.7 219.2 395.5C292.3 386.3 365.7 371.7 438.8 377.2C512 382.7 585 408.3 658.2 414.5C731.3 420.7 804.7 407.3 877.8 394C951 380.7 1024 367.3 1097.2 372C1170.3 376.7 1243.7 399.3 1316.8 403.8C1390 408.3 1463 394.7 1499.5 387.8L1536 381L1536 541L1499.5 541C1463 541 1390 541 1316.8 541C1243.7 541 1170.3 541 1097.2 541C1024 541 951 541 877.8 541C804.7 541 731.3 541 658.2 541C585 541 512 541 438.8 541C365.7 541 292.3 541 219.2 541C146 541 73 541 36.5 541L0 541Z" fill="#bf00b3"></path><path d="M0 417L36.5 423.2C73 429.3 146 441.7 219.2 439C292.3 436.3 365.7 418.7 438.8 417.8C512 417 585 433 658.2 434.2C731.3 435.3 804.7 421.7 877.8 417C951 412.3 1024 416.7 1097.2 423.3C1170.3 430 1243.7 439 1316.8 436.3C1390 433.7 1463 419.3 1499.5 412.2L1536 405L1536 541L1499.5 541C1463 541 1390 541 1316.8 541C1243.7 541 1170.3 541 1097.2 541C1024 541 951 541 877.8 541C804.7 541 731.3 541 658.2 541C585 541 512 541 438.8 541C365.7 541 292.3 541 219.2 541C146 541 73 541 36.5 541L0 541Z" fill="#c80096"></path><path d="M0 456L36.5 455.5C73 455 146 454 219.2 459.3C292.3 464.7 365.7 476.3 438.8 480.8C512 485.3 585 482.7 658.2 482.3C731.3 482 804.7 484 877.8 483.8C951 483.7 1024 481.3 1097.2 477.8C1170.3 474.3 1243.7 469.7 1316.8 463.2C1390 456.7 1463 448.3 1499.5 444.2L1536 440L1536 541L1499.5 541C1463 541 1390 541 1316.8 541C1243.7 541 1170.3 541 1097.2 541C1024 541 951 541 877.8 541C804.7 541 731.3 541 658.2 541C585 541 512 541 438.8 541C365.7 541 292.3 541 219.2 541C146 541 73 541 36.5 541L0 541Z" fill="#ca0e7d"></path><path d="M0 479L36.5 479.2C73 479.3 146 479.7 219.2 484C292.3 488.3 365.7 496.7 438.8 498.3C512 500 585 495 658.2 492.7C731.3 490.3 804.7 490.7 877.8 487.7C951 484.7 1024 478.3 1097.2 478.5C1170.3 478.7 1243.7 485.3 1316.8 490.5C1390 495.7 1463 499.3 1499.5 501.2L1536 503L1536 541L1499.5 541C1463 541 1390 541 1316.8 541C1243.7 541 1170.3 541 1097.2 541C1024 541 951 541 877.8 541C804.7 541 731.3 541 658.2 541C585 541 512 541 438.8 541C365.7 541 292.3 541 219.2 541C146 541 73 541 36.5 541L0 541Z" fill="#c62368"></path></svg>